<?xml version="1.0" standalone="no"?>
<!DOCTYPE svg PUBLIC "-//W3C//DTD SVG 20010904//EN"
 "http://www.w3.org/TR/2001/REC-SVG-20010904/DTD/svg10.dtd">
<svg version="1.0" xmlns="http://www.w3.org/2000/svg"
 width="512.000000pt" height="512.000000pt" viewBox="0 0 512.000000 512.000000"
 preserveAspectRatio="xMidYMid meet">
<metadata>
Created by potrace 1.11, written by Peter Selinger 2001-2013
</metadata>
<g transform="translate(0.000000,512.000000) scale(0.100000,-0.100000)"
fill="#000000" stroke="none">
<path d="M2289 4946 c-2 -2 -44 -7 -94 -10 -162 -12 -432 -50 -535 -76 -300
-75 -446 -127 -644 -227 -232 -118 -447 -284 -606 -469 -37 -42 -150 -200
-150 -208 0 -4 -16 -32 -36 -63 -115 -180 -217 -508 -218 -704 -1 -101 0 -107
28 -148 39 -56 100 -91 165 -94 28 -2 54 -7 58 -11 4 -4 8 -41 9 -82 2 -97 19
-154 61 -204 19 -22 31 -40 26 -41 -4 0 -27 -2 -50 -3 -172 -13 -241 -211
-113 -320 l32 -26 -31 -26 c-17 -14 -44 -47 -59 -73 -23 -39 -27 -57 -26 -116
1 -58 6 -78 27 -111 24 -40 79 -89 123 -112 18 -10 20 -17 15 -54 -7 -47 -6
-272 2 -291 3 -8 -13 -12 -57 -13 -88 -2 -145 -35 -191 -109 -36 -57 -24 -260
25 -419 63 -204 191 -387 372 -532 37 -30 71 -54 75 -54 4 0 27 -13 50 -29 87
-59 284 -122 426 -136 91 -10 3115 -10 3192 -1 353 43 653 248 828 566 73 134
113 277 124 447 7 111 -9 165 -64 213 -46 40 -76 52 -141 55 l-53 3 -2 175
c-2 171 -1 176 19 186 38 17 95 73 116 114 44 87 23 207 -49 279 l-39 39 42
43 c115 120 29 302 -145 305 l-43 1 32 37 c57 64 62 86 69 283 1 11 15 15 55
17 30 1 69 9 87 18 47 24 97 83 110 130 11 37 7 163 -6 225 -2 14 -10 50 -16
80 -22 109 -91 302 -148 413 -112 220 -228 370 -406 529 -341 304 -817 501
-1385 572 -69 8 -145 18 -170 21 -51 7 -685 17 -691 11z"/>
</g>
</svg>
